<mxfile host="app.diagrams.net" modified="2022-12-07T07:50:43.804Z" agent="5.0 (Windows NT 10.0; Win64; x64) AppleWebKit/537.36 (KHTML, like Gecko) Chrome/107.0.0.0 Safari/537.36" etag="pZAq52QI-vJqTn5pHQKa" version="20.5.1" type="github">
  <diagram id="C5RBs43oDa-KdzZeNtuy" name="Page-1">
    <mxGraphModel dx="1296" dy="684" grid="0" gridSize="10" guides="1" tooltips="1" connect="1" arrows="1" fold="1" page="1" pageScale="1" pageWidth="827" pageHeight="1169" background="#F1FAEE" math="0" shadow="0">
      <root>
        <mxCell id="WIyWlLk6GJQsqaUBKTNV-0" />
        <mxCell id="WIyWlLk6GJQsqaUBKTNV-1" parent="WIyWlLk6GJQsqaUBKTNV-0" />
        <mxCell id="OU7RjcP8ITgo0XetVb0L-19" value="" style="edgeStyle=orthogonalEdgeStyle;rounded=0;orthogonalLoop=1;jettySize=auto;html=1;strokeColor=#457B9D;fontColor=#1D3557;fillColor=#A8DADC;labelBackgroundColor=#F1FAEE;" edge="1" parent="WIyWlLk6GJQsqaUBKTNV-1" source="WIyWlLk6GJQsqaUBKTNV-3" target="OU7RjcP8ITgo0XetVb0L-18">
          <mxGeometry relative="1" as="geometry" />
        </mxCell>
        <mxCell id="WIyWlLk6GJQsqaUBKTNV-3" value="选择算力汇聚VTEP,&lt;br&gt;互联网出口核心VTEP" style="rounded=1;whiteSpace=wrap;html=1;fontSize=12;glass=0;strokeWidth=1;shadow=0;fillColor=#A8DADC;strokeColor=#457B9D;fontColor=#1D3557;" parent="WIyWlLk6GJQsqaUBKTNV-1" vertex="1">
          <mxGeometry x="323" y="182.5" width="136" height="65" as="geometry" />
        </mxCell>
        <mxCell id="OU7RjcP8ITgo0XetVb0L-3" style="edgeStyle=orthogonalEdgeStyle;rounded=0;orthogonalLoop=1;jettySize=auto;html=1;strokeColor=#457B9D;fontColor=#1D3557;fillColor=#A8DADC;labelBackgroundColor=#F1FAEE;" edge="1" parent="WIyWlLk6GJQsqaUBKTNV-1" source="OU7RjcP8ITgo0XetVb0L-1">
          <mxGeometry relative="1" as="geometry">
            <mxPoint x="123" y="60" as="targetPoint" />
          </mxGeometry>
        </mxCell>
        <mxCell id="OU7RjcP8ITgo0XetVb0L-1" value="代理商" style="shape=umlActor;verticalLabelPosition=bottom;verticalAlign=top;html=1;outlineConnect=0;strokeColor=#457B9D;fontColor=#1D3557;fillColor=#A8DADC;" vertex="1" parent="WIyWlLk6GJQsqaUBKTNV-1">
          <mxGeometry x="23" y="30" width="30" height="60" as="geometry" />
        </mxCell>
        <mxCell id="OU7RjcP8ITgo0XetVb0L-13" value="" style="edgeStyle=orthogonalEdgeStyle;rounded=0;orthogonalLoop=1;jettySize=auto;html=1;strokeColor=#457B9D;fontColor=#1D3557;fillColor=#A8DADC;labelBackgroundColor=#F1FAEE;" edge="1" parent="WIyWlLk6GJQsqaUBKTNV-1" source="OU7RjcP8ITgo0XetVb0L-11" target="OU7RjcP8ITgo0XetVb0L-12">
          <mxGeometry relative="1" as="geometry">
            <Array as="points">
              <mxPoint x="163" y="170" />
              <mxPoint x="163" y="170" />
            </Array>
          </mxGeometry>
        </mxCell>
        <mxCell id="OU7RjcP8ITgo0XetVb0L-16" value="N" style="edgeLabel;html=1;align=center;verticalAlign=middle;resizable=0;points=[];fontColor=#1D3557;labelBackgroundColor=#F1FAEE;" vertex="1" connectable="0" parent="OU7RjcP8ITgo0XetVb0L-13">
          <mxGeometry x="-0.208" y="-2" relative="1" as="geometry">
            <mxPoint as="offset" />
          </mxGeometry>
        </mxCell>
        <mxCell id="OU7RjcP8ITgo0XetVb0L-14" style="edgeStyle=orthogonalEdgeStyle;rounded=0;orthogonalLoop=1;jettySize=auto;html=1;strokeColor=#457B9D;fontColor=#1D3557;fillColor=#A8DADC;entryX=0.5;entryY=0;entryDx=0;entryDy=0;labelBackgroundColor=#F1FAEE;" edge="1" parent="WIyWlLk6GJQsqaUBKTNV-1" source="OU7RjcP8ITgo0XetVb0L-11" target="WIyWlLk6GJQsqaUBKTNV-3">
          <mxGeometry relative="1" as="geometry">
            <mxPoint x="323" y="60" as="targetPoint" />
          </mxGeometry>
        </mxCell>
        <mxCell id="OU7RjcP8ITgo0XetVb0L-15" value="Y" style="edgeLabel;html=1;align=center;verticalAlign=middle;resizable=0;points=[];fontColor=#1D3557;labelBackgroundColor=#F1FAEE;" vertex="1" connectable="0" parent="OU7RjcP8ITgo0XetVb0L-14">
          <mxGeometry x="-0.2138" y="-4" relative="1" as="geometry">
            <mxPoint as="offset" />
          </mxGeometry>
        </mxCell>
        <mxCell id="OU7RjcP8ITgo0XetVb0L-11" value="接入机房&lt;br&gt;开启灰度" style="rhombus;whiteSpace=wrap;html=1;strokeColor=#457B9D;fontColor=#1D3557;fillColor=#A8DADC;" vertex="1" parent="WIyWlLk6GJQsqaUBKTNV-1">
          <mxGeometry x="123" y="20" width="80" height="80" as="geometry" />
        </mxCell>
        <mxCell id="OU7RjcP8ITgo0XetVb0L-17" style="edgeStyle=orthogonalEdgeStyle;rounded=0;orthogonalLoop=1;jettySize=auto;html=1;entryX=0;entryY=0.5;entryDx=0;entryDy=0;strokeColor=#457B9D;fontColor=#1D3557;fillColor=#A8DADC;labelBackgroundColor=#F1FAEE;" edge="1" parent="WIyWlLk6GJQsqaUBKTNV-1" source="OU7RjcP8ITgo0XetVb0L-12" target="WIyWlLk6GJQsqaUBKTNV-3">
          <mxGeometry relative="1" as="geometry" />
        </mxCell>
        <mxCell id="OU7RjcP8ITgo0XetVb0L-12" value="向网络管理员&lt;br&gt;申请开启灰度" style="whiteSpace=wrap;html=1;fillColor=#A8DADC;strokeColor=#457B9D;fontColor=#1D3557;" vertex="1" parent="WIyWlLk6GJQsqaUBKTNV-1">
          <mxGeometry x="113" y="185" width="120" height="60" as="geometry" />
        </mxCell>
        <mxCell id="OU7RjcP8ITgo0XetVb0L-20" style="edgeStyle=orthogonalEdgeStyle;rounded=0;orthogonalLoop=1;jettySize=auto;html=1;entryX=1;entryY=0.5;entryDx=0;entryDy=0;strokeColor=#457B9D;fontColor=#1D3557;fillColor=#A8DADC;labelBackgroundColor=#F1FAEE;" edge="1" parent="WIyWlLk6GJQsqaUBKTNV-1" source="OU7RjcP8ITgo0XetVb0L-18" target="WIyWlLk6GJQsqaUBKTNV-3">
          <mxGeometry relative="1" as="geometry">
            <Array as="points">
              <mxPoint x="523" y="360" />
              <mxPoint x="523" y="215" />
            </Array>
          </mxGeometry>
        </mxCell>
        <mxCell id="OU7RjcP8ITgo0XetVb0L-21" value="N" style="edgeLabel;html=1;align=center;verticalAlign=middle;resizable=0;points=[];fontColor=#1D3557;labelBackgroundColor=#F1FAEE;" vertex="1" connectable="0" parent="OU7RjcP8ITgo0XetVb0L-20">
          <mxGeometry x="-0.0748" y="-1" relative="1" as="geometry">
            <mxPoint as="offset" />
          </mxGeometry>
        </mxCell>
        <mxCell id="OU7RjcP8ITgo0XetVb0L-23" value="" style="edgeStyle=orthogonalEdgeStyle;rounded=0;orthogonalLoop=1;jettySize=auto;html=1;strokeColor=#457B9D;fontColor=#1D3557;fillColor=#A8DADC;labelBackgroundColor=#F1FAEE;" edge="1" parent="WIyWlLk6GJQsqaUBKTNV-1" source="OU7RjcP8ITgo0XetVb0L-18" target="OU7RjcP8ITgo0XetVb0L-22">
          <mxGeometry relative="1" as="geometry">
            <Array as="points">
              <mxPoint x="393" y="430" />
              <mxPoint x="393" y="430" />
            </Array>
          </mxGeometry>
        </mxCell>
        <mxCell id="OU7RjcP8ITgo0XetVb0L-24" value="Y" style="edgeLabel;html=1;align=center;verticalAlign=middle;resizable=0;points=[];fontColor=#1D3557;labelBackgroundColor=#F1FAEE;" vertex="1" connectable="0" parent="OU7RjcP8ITgo0XetVb0L-23">
          <mxGeometry x="-0.2499" y="3" relative="1" as="geometry">
            <mxPoint as="offset" />
          </mxGeometry>
        </mxCell>
        <mxCell id="OU7RjcP8ITgo0XetVb0L-18" value="合法性校验：&lt;br&gt;核心是否一台&lt;br&gt;是否配置过Loopback" style="whiteSpace=wrap;html=1;fillColor=#A8DADC;strokeColor=#457B9D;fontColor=#1D3557;rounded=1;glass=0;strokeWidth=1;shadow=0;" vertex="1" parent="WIyWlLk6GJQsqaUBKTNV-1">
          <mxGeometry x="331" y="330" width="120" height="60" as="geometry" />
        </mxCell>
        <mxCell id="OU7RjcP8ITgo0XetVb0L-28" value="" style="edgeStyle=orthogonalEdgeStyle;rounded=0;orthogonalLoop=1;jettySize=auto;html=1;strokeColor=#457B9D;fontColor=#1D3557;fillColor=#A8DADC;labelBackgroundColor=#F1FAEE;" edge="1" parent="WIyWlLk6GJQsqaUBKTNV-1" source="OU7RjcP8ITgo0XetVb0L-22" target="OU7RjcP8ITgo0XetVb0L-27">
          <mxGeometry relative="1" as="geometry" />
        </mxCell>
        <mxCell id="OU7RjcP8ITgo0XetVb0L-22" value="平台下发公共配置，私有配置（没配过才配置）" style="whiteSpace=wrap;html=1;fillColor=#A8DADC;strokeColor=#457B9D;fontColor=#1D3557;rounded=1;glass=0;strokeWidth=1;shadow=0;" vertex="1" parent="WIyWlLk6GJQsqaUBKTNV-1">
          <mxGeometry x="331" y="470" width="120" height="60" as="geometry" />
        </mxCell>
        <mxCell id="OU7RjcP8ITgo0XetVb0L-31" value="" style="edgeStyle=orthogonalEdgeStyle;rounded=0;orthogonalLoop=1;jettySize=auto;html=1;strokeColor=#457B9D;fontColor=#1D3557;fillColor=#A8DADC;labelBackgroundColor=#F1FAEE;" edge="1" parent="WIyWlLk6GJQsqaUBKTNV-1" source="OU7RjcP8ITgo0XetVb0L-27" target="OU7RjcP8ITgo0XetVb0L-30">
          <mxGeometry relative="1" as="geometry" />
        </mxCell>
        <mxCell id="OU7RjcP8ITgo0XetVb0L-37" value="" style="edgeStyle=orthogonalEdgeStyle;rounded=0;orthogonalLoop=1;jettySize=auto;html=1;strokeColor=#457B9D;fontColor=#1D3557;fillColor=#A8DADC;labelBackgroundColor=#F1FAEE;" edge="1" parent="WIyWlLk6GJQsqaUBKTNV-1" source="OU7RjcP8ITgo0XetVb0L-27" target="OU7RjcP8ITgo0XetVb0L-36">
          <mxGeometry relative="1" as="geometry">
            <Array as="points">
              <mxPoint x="391" y="720" />
              <mxPoint x="391" y="720" />
            </Array>
          </mxGeometry>
        </mxCell>
        <mxCell id="OU7RjcP8ITgo0XetVb0L-39" value="Y" style="edgeLabel;html=1;align=center;verticalAlign=middle;resizable=0;points=[];fontColor=#1D3557;labelBackgroundColor=#F1FAEE;" vertex="1" connectable="0" parent="OU7RjcP8ITgo0XetVb0L-37">
          <mxGeometry x="-0.2518" y="1" relative="1" as="geometry">
            <mxPoint as="offset" />
          </mxGeometry>
        </mxCell>
        <mxCell id="OU7RjcP8ITgo0XetVb0L-27" value="操作结果成功" style="rhombus;whiteSpace=wrap;html=1;fillColor=#A8DADC;strokeColor=#457B9D;fontColor=#1D3557;rounded=1;glass=0;strokeWidth=1;shadow=0;" vertex="1" parent="WIyWlLk6GJQsqaUBKTNV-1">
          <mxGeometry x="351" y="600" width="80" height="80" as="geometry" />
        </mxCell>
        <mxCell id="OU7RjcP8ITgo0XetVb0L-33" value="" style="edgeStyle=orthogonalEdgeStyle;rounded=0;orthogonalLoop=1;jettySize=auto;html=1;strokeColor=#457B9D;fontColor=#1D3557;fillColor=#A8DADC;labelBackgroundColor=#F1FAEE;" edge="1" parent="WIyWlLk6GJQsqaUBKTNV-1" source="OU7RjcP8ITgo0XetVb0L-30" target="OU7RjcP8ITgo0XetVb0L-32">
          <mxGeometry relative="1" as="geometry" />
        </mxCell>
        <mxCell id="OU7RjcP8ITgo0XetVb0L-30" value="人工介入，检查配置" style="whiteSpace=wrap;html=1;fillColor=#A8DADC;strokeColor=#457B9D;fontColor=#1D3557;rounded=1;glass=0;strokeWidth=1;shadow=0;" vertex="1" parent="WIyWlLk6GJQsqaUBKTNV-1">
          <mxGeometry x="491" y="610" width="120" height="60" as="geometry" />
        </mxCell>
        <mxCell id="OU7RjcP8ITgo0XetVb0L-35" style="edgeStyle=orthogonalEdgeStyle;rounded=0;orthogonalLoop=1;jettySize=auto;html=1;strokeColor=#457B9D;fontColor=#1D3557;fillColor=#A8DADC;entryX=1;entryY=0.25;entryDx=0;entryDy=0;labelBackgroundColor=#F1FAEE;" edge="1" parent="WIyWlLk6GJQsqaUBKTNV-1" source="OU7RjcP8ITgo0XetVb0L-32" target="WIyWlLk6GJQsqaUBKTNV-3">
          <mxGeometry relative="1" as="geometry">
            <mxPoint x="493" y="210" as="targetPoint" />
            <Array as="points">
              <mxPoint x="753" y="200" />
              <mxPoint x="459" y="200" />
            </Array>
          </mxGeometry>
        </mxCell>
        <mxCell id="OU7RjcP8ITgo0XetVb0L-32" value="平台初始化" style="whiteSpace=wrap;html=1;fillColor=#A8DADC;strokeColor=#457B9D;fontColor=#1D3557;rounded=1;glass=0;strokeWidth=1;shadow=0;" vertex="1" parent="WIyWlLk6GJQsqaUBKTNV-1">
          <mxGeometry x="691" y="610" width="120" height="60" as="geometry" />
        </mxCell>
        <mxCell id="OU7RjcP8ITgo0XetVb0L-36" value="使用vxlan网络调度" style="whiteSpace=wrap;html=1;fillColor=#A8DADC;strokeColor=#457B9D;fontColor=#1D3557;rounded=1;glass=0;strokeWidth=1;shadow=0;" vertex="1" parent="WIyWlLk6GJQsqaUBKTNV-1">
          <mxGeometry x="331" y="770" width="120" height="60" as="geometry" />
        </mxCell>
        <mxCell id="OU7RjcP8ITgo0XetVb0L-38" value="N" style="text;html=1;align=center;verticalAlign=middle;resizable=0;points=[];autosize=1;strokeColor=none;fillColor=none;fontColor=#1D3557;" vertex="1" parent="WIyWlLk6GJQsqaUBKTNV-1">
          <mxGeometry x="448" y="615" width="30" height="30" as="geometry" />
        </mxCell>
      </root>
    </mxGraphModel>
  </diagram>
</mxfile>
